<?xml version="1.0" standalone="no"?>
<!DOCTYPE svg PUBLIC "-//W3C//DTD SVG 20010904//EN"
 "http://www.w3.org/TR/2001/REC-SVG-20010904/DTD/svg10.dtd">
<svg version="1.0" xmlns="http://www.w3.org/2000/svg"
 width="4500.000000pt" height="2957.000000pt" viewBox="0 0 4500.000000 2957.000000"
 preserveAspectRatio="xMidYMid meet">

<g transform="translate(0.000000,2957.000000) scale(0.100000,-0.100000)"
fill="#000000" stroke="none">
<path d="M32197 19103 c-4 -3 -7 -1916 -7 -4250 l0 -4243 630 0 630 0 0 4250
0 4250 -623 0 c-343 0 -627 -3 -630 -7z"/>
<path d="M19575 18861 c-154 -41 -257 -96 -361 -194 -168 -157 -256 -355 -256
-577 0 -355 236 -661 588 -762 104 -29 314 -32 413 -4 181 50 344 165 457 322
257 359 162 851 -211 1100 -72 48 -127 74 -220 104 -99 32 -309 38 -410 11z"/>
<path d="M14820 18753 c-144 -15 -318 -66 -455 -135 -136 -68 -237 -143 -350
-259 -143 -147 -236 -299 -300 -492 -70 -209 -65 80 -65 -3774 l0 -3483 670 0
670 0 0 1655 0 1655 1660 0 1659 0 1 640 0 640 -1660 0 -1660 0 0 1145 0 1146
1715 -7 1715 -7 0 641 0 642 -1782 -2 c-981 0 -1799 -3 -1818 -5z"/>
<path d="M8965 18720 c-1292 -115 -2321 -996 -2537 -2171 l-22 -118 -90 -37
c-210 -85 -433 -214 -646 -372 -154 -115 -428 -390 -546 -547 -296 -395 -474
-820 -556 -1323 -22 -137 -22 -138 -25 -1709 l-4 -1573 1513 0 c1615 0 1637 1
1899 50 1154 218 2065 1125 2288 2280 16 81 41 269 41 305 0 30 2 32 113 74
313 121 572 295 817 547 440 453 704 990 786 1594 21 150 23 470 6 610 -52
403 -183 772 -393 1102 -444 700 -1179 1162 -2028 1273 -141 19 -480 27 -616
15z m-1390 -2174 c17 -3 77 -10 135 -16 645 -70 1239 -349 1704 -800 389 -378
646 -821 781 -1346 57 -220 78 -388 79 -634 l1 -215 -95 -33 c-200 -70 -482
-132 -690 -151 -140 -12 -430 -13 -550 -1 -487 50 -931 206 -1320 465 -178
118 -275 199 -436 359 -436 437 -689 951 -770 1566 -18 138 -24 510 -11 622
l9 68 80 25 c111 35 299 72 453 89 122 13 551 15 630 2z"/>
<path d="M22723 17872 l-623 -185 0 -629 0 -628 -535 0 -535 0 0 -605 0 -605
535 0 535 0 1 -1432 c0 -788 2 -1453 4 -1478 2 -25 6 -94 9 -154 20 -333 109
-668 239 -891 225 -388 587 -597 1177 -681 153 -21 673 -30 881 -15 168 12
341 29 377 37 l22 4 0 563 0 562 -467 0 c-463 0 -469 0 -543 23 -245 77 -361
198 -416 432 -16 70 -18 183 -21 1553 l-4 1477 726 0 725 0 -2 603 -3 602
-722 3 -723 2 0 815 c0 448 -3 815 -7 814 -5 -1 -288 -85 -630 -187z"/>
<path d="M28180 16573 c-407 -40 -718 -115 -1030 -250 -774 -335 -1403 -1048
-1635 -1852 -171 -596 -175 -1281 -8 -1876 97 -350 272 -695 503 -995 96 -125
389 -416 515 -511 438 -332 905 -519 1500 -600 193 -26 668 -37 866 -20 628
55 1141 242 1582 578 182 139 423 391 571 598 46 63 54 81 44 90 -14 13 -1012
595 -1020 595 -3 0 -34 -37 -70 -83 -93 -116 -249 -263 -359 -336 -221 -149
-447 -232 -744 -277 -170 -25 -547 -26 -700 -1 -375 61 -710 205 -953 409
-254 214 -450 539 -526 876 l-14 62 2296 1 c1264 1 2306 2 2317 3 23 1 25 8
50 256 20 192 16 472 -10 685 -85 709 -376 1324 -865 1829 -454 469 -1002 735
-1670 811 -103 12 -545 17 -640 8z m605 -1163 c421 -83 789 -312 1018 -632 72
-101 169 -288 212 -408 23 -66 95 -331 95 -352 0 -5 -770 -8 -1711 -8 -1624 0
-1710 1 -1706 18 3 9 13 53 22 97 35 165 125 381 221 531 269 423 701 696
1214 769 156 22 489 14 635 -15z"/>
<path d="M37140 16577 c-3 -2 -41 -7 -85 -11 -90 -7 -108 -10 -255 -37 -464
-86 -922 -287 -1300 -571 -141 -106 -313 -260 -400 -358 -438 -496 -688 -1041
-782 -1710 -8 -62 -13 -195 -12 -380 0 -244 3 -305 22 -424 88 -550 274 -1001
589 -1421 467 -622 1133 -1032 1893 -1164 182 -31 190 -32 481 -38 306 -6 464
6 699 53 774 154 1452 594 1908 1237 461 651 650 1469 522 2257 -105 640 -395
1206 -854 1666 -478 477 -1055 767 -1746 875 -102 16 -201 22 -405 26 -148 3
-272 3 -275 0z m375 -1227 c248 -21 468 -81 676 -185 274 -137 482 -310 641
-537 460 -651 473 -1501 33 -2168 -167 -253 -369 -429 -658 -575 -423 -212
-860 -257 -1323 -135 -331 88 -676 300 -876 539 -393 472 -537 1089 -393 1688
87 361 312 736 570 949 379 312 856 464 1330 424z"/>
<path d="M19130 13520 l0 -2910 630 0 630 0 0 2910 0 2910 -630 0 -630 0 0
-2910z"/>
</g>
</svg>
